# xmcd
#
# Track frame offsets: 
#        150
#        11316
#        26534
#        38064
#        47357
#        64175
#        74258
#        86063
#        99141
#        109453
#        123526
#        135691
#        146338
#        156638
#        169556
#
# Disc length: 2430 seconds
#
# Revision: 0
# Processed by: cddbd v1.5.2PL0 Copyright (c) Steve Scherf et al.
# Submitted via: ExactAudioCopy v1.0b3
#
DISCID=c4097c0f
DTITLE=Various Artist - walk the line OST
DYEAR=2005
DGENRE=Country
TTITLE0=Joaquin Phoenix - Get Rhythm
TTITLE1=Joaquin Phoenix - I Walk The Line
TTITLE2=Reese Witherspoon - Wildwood Flower
TTITLE3=Waylon Payne - Lewis Boogie
TTITLE4=Joaquin Phoenix - Ring Of Fire
TTITLE5=Joaquin Phoenix - You're My Baby
TTITLE6=Joaquin Phoenix - Cry Cry Cry
TTITLE7=Joaquin Phoenix - Folsom Prison Blues
TTITLE8=Reese Witherspoon - Juke Box Blues
TTITLE9=Joaquin Phoenix and Reese Witherspoon - It Ain't Me Babe
TTITLE10=Joaquin Phoenix - Home Of The Blues
TTITLE11=Joaquin Phoenix - Milk Cow Blues
TTITLE12=Shooter Jennings - I'm A Long Way From Home
TTITLE13=Joaquin Phoenix - Cocaine Blues
TTITLE14=Joaquin Phoenix and Reese Witherspoon - Jackson
EXTD=
EXTT0=
EXTT1=
EXTT2=
EXTT3=
EXTT4=
EXTT5=
EXTT6=
EXTT7=
EXTT8=
EXTT9=
EXTT10=
EXTT11=
EXTT12=
EXTT13=
EXTT14=
PLAYORDER=
